PathFileType	4	(X/Y/Z)	C:/Users/opensim2020/Desktop/walking_exp_matlab/subject02_walking17_run.trc																																																																																																																																																							
DataRate	CameraRate	NumFrames	NumMarkers	Units	OrigDataRate	OrigDataStartFrame	OrigNumFrames																																																																																																																																																			
100	100	4	51	mm	100	245	112																																																																																																																																																			
Frame#	Time	LSHO			RELB			LANK			LTOE			LUPA			RUPA			RWRB			LKNE			RSHO			RFIN			RFRM			RASI			LTHI			LWRB			RTHI			LASI			LFHD			RKNE			LELB			LTIB			RWRA			STRN			RTIB			RFHD			RANK			RBHD			RTOE			RHEE			C7			LHEE			LFRM			CLAV			LWRA			LBHD			RBAK			LFIN			T10			LPSI			RPSI			*39			*40			*41			*42			*43			*44			*45			*46			*47			*48			*49			*50		
		X1	Y1	Z1	X2	Y2	Z2	X3	Y3	Z3	X4	Y4	Z4	X5	Y5	Z5	X6	Y6	Z6	X7	Y7	Z7	X8	Y8	Z8	X9	Y9	Z9	X10	Y10	Z10	X11	Y11	Z11	X12	Y12	Z12	X13	Y13	Z13	X14	Y14	Z14	X15	Y15	Z15	X16	Y16	Z16	X17	Y17	Z17	X18	Y18	Z18	X19	Y19	Z19	X20	Y20	Z20	X21	Y21	Z21	X22	Y22	Z22	X23	Y23	Z23	X24	Y24	Z24	X25	Y25	Z25	X26	Y26	Z26	X27	Y27	Z27	X28	Y28	Z28	X29	Y29	Z29	X30	Y30	Z30	X31	Y31	Z31	X32	Y32	Z32	X33	Y33	Z33	X34	Y34	Z34	X35	Y35	Z35	X36	Y36	Z36	X37	Y37	Z37	X38	Y38	Z38	X39	Y39	Z39	X40	Y40	Z40	X41	Y41	Z41	X42	Y42	Z42	X43	Y43	Z43	X44	Y44	Z44	X45	Y45	Z45	X46	Y46	Z46	X47	Y47	Z47	X48	Y48	Z48	X49	Y49	Z49	X50	Y50	Z50	X51	Y51	Z51
																																																																																																																																																										
15	0.14	-1458.93188	1449.93726	-216.01643	-1492.37585	1174.14465	302.12625	-1336.13501	109.74004	-113.80708	-1176.72095	88.27742	-103.09426	-1556.24829	1339.61487	-361.5195	-1501.87244	1316.29883	258.55453	-1329.02502	1131.54858	112.26183	-1406.94006	514.94574	-166.82057	-1446.15039	1465.66663	133.12871	-1293.74011	1174.78247	69.9251	-1408.07422	1149.44141	209.04295	-1522.30981	950.90491	92.04012	-1467.80286	702.96521	-223.60864	-1483.09326	1043.67078	-322.40317	-1730.39172	687.03809	133.48708	-1502.68127	990.34802	-141.82953	-1409.02161	1704.63013	-132.1973	-1821.7583	493.22516	91.28699	-1623.99988	1237.32617	-430.78922	-1399.21008	323.65747	-159.90617	-1356.05408	1177.35938	92.71581	-1406.77014	1230.10046	-34.31974	-1996.05933	416.31485	67.74971	-1405.33215	1700.84546	12.54361	-2155.82251	321.56882	10.43519	-1522.8606	1588.64685	10.8238	-2178.05054	153.59988	14.28455	-2186.72144	331.1951	-59.34871	-1531.79089	1498.83667	-45.29841	-1367.96997	85.6171	-59.56995	-1558.23816	1124.9292	-386.32602	-1405.09155	1410.52625	-58.24564	-1465.67676	1089.547	-290.85281	-1515.39233	1598.07019	-132.2235	-1622.6272	1370.39172	46.83953	-1425.10388	1025.39111	-292.7034	-1657.58875	1270.77368	-7.79229	-1701.34387	1068.36646	-89.21598	-1706.22205	1063.70142	28.27037	2845.99512	1034.69775	-3357.40649	NaN	NaN	NaN	NaN	NaN	NaN	NaN	NaN	NaN	NaN	NaN	NaN	NaN	NaN	NaN	-1525.62024	1748.43372	-48.36629	NaN	NaN	NaN	NaN	NaN	NaN	NaN	NaN	NaN	NaN	NaN	NaN	NaN	NaN	NaN
16	0.15	-1423.47534	1444.05798	-219.40331	-1467.48596	1178.00928	305.09918	-1316.37781	104.45	-105.9478	-1157.90845	78.3662	-97.89712	-1520.86987	1318.51575	-356.93027	-1470.47058	1320.18225	258.4675	-1302.54529	1108.1687	123.96531	-1373.56348	511.16949	-163.09189	-1405.29297	1464.54858	133.26091	-1261.31921	1143.97937	79.89779	-1382.53772	1139.7605	217.20724	-1479.51782	951.50739	91.97186	-1438.90662	693.69391	-225.26915	-1419.85474	1043.33728	-295.26556	-1678.03418	679.03119	138.5421	-1466.58911	989.63324	-141.7182	-1369.96326	1703.12061	-134.32387	-1764.65198	485.5379	97.3442	-1579.8811	1209.47607	-418.60382	-1371.67957	319.82886	-153.76973	-1324.18359	1155.42603	100.94638	-1368.31189	1229.31506	-35.32368	-1943.04016	422.07181	71.60819	-1366.23645	1698.90381	10.72248	-2107.58301	339.23975	12.16906	-1483.73108	1586.16614	8.54245	-2140.41455	173.07594	13.59266	-2137.62573	351.7063	-57.67352	-1492.04419	1497.33228	-46.12778	-1349.01746	81.72446	-51.10247	-1502.94873	1109.31189	-364.87085	-1367.64258	1408.58044	-59.98672	-1407.00293	1093.29529	-268.59161	-1475.55566	1595.95483	-134.51585	-1583.07678	1368.89575	47.09332	-1360.72668	1033.17395	-264.13538	-1619.01074	1271.88037	-5.34203	-1662.77002	1070.01697	-86.23438	-1665.69336	1066.71167	31.10565	2845.96582	1034.56042	-3357.37061	NaN	NaN	NaN	NaN	NaN	NaN	NaN	NaN	NaN	NaN	NaN	NaN	NaN	NaN	NaN	-1486.65503	1746.40442	-50.67311	NaN	NaN	NaN	NaN	NaN	NaN	NaN	NaN	NaN	NaN	NaN	NaN	NaN	NaN	NaN
17	0.16	-1388.11682	1437.2832	-222.59125	-1442.02917	1182.11902	307.73126	-1303.78699	97.82349	-98.63647	-1146.87488	64.85769	-89.52971	-1483.12854	1297.25793	-351.31989	-1437.81433	1323.86743	257.20297	-1278.33008	1083.78833	138.33711	-1338.98279	506.89001	-159.938	-1364.48645	1462.29272	132.67747	-1232.19177	1111.25696	93.19638	-1357.61328	1130.3252	226.75415	-1437.01331	951.40887	92.39439	-1409.73718	684.24182	-224.73947	-1355.80688	1046.42456	-268.45883	-1625.17786	669.89447	143.91278	-1429.5199	988.52734	-142.03421	-1330.34326	1700.80872	-136.02502	-1705.05933	476.79263	103.12492	-1532.10144	1181.37439	-405.12512	-1348.61841	315.43765	-148.59326	-1294.599	1130.60278	110.98527	-1330.20349	1227.1969	-36.40923	-1886.26282	425.24921	76.47141	-1326.80798	1695.96765	9.12162	-2054.88989	354.80579	15.16479	-1443.96582	1582.93262	6.48739	-2095.69531	190.65254	14.05107	-2084.53931	369.92621	-54.14836	-1452.56067	1495.38354	-47.02245	-1336.44006	76.33109	-43.37342	-1445.50525	1096.06458	-343.01157	-1329.54443	1405.30457	-61.44677	-1348.02283	1099.60522	-246.65787	-1435.56323	1592.92688	-136.45586	-1543.86316	1367.23572	47.4598	-1296.10364	1045.50159	-236.38402	-1580.56616	1272.03491	-3.70028	-1624.46912	1070.06067	-82.95644	-1625.06335	1067.9574	34.01484	2845.92578	1034.3064	-3357.16895	NaN	NaN	NaN	NaN	NaN	NaN	NaN	NaN	NaN	NaN	NaN	NaN	NaN	NaN	NaN	-1447.26501	1742.84436	-52.39102	NaN	NaN	NaN	NaN	NaN	NaN	NaN	NaN	NaN	NaN	NaN	NaN	NaN	NaN	NaN
18	0.17	-1352.7915	1429.89355	-225.56696	-1415.63367	1186.16565	309.95096	-1296.23828	89.65633	-91.78944	-1141.65173	47.89557	-79.82642	-1442.71814	1276.37146	-345.06308	-1403.99414	1326.57422	255.71866	-1256.41125	1059.02917	154.67154	-1305.92346	500.60681	-157.5524	-1323.6272	1459.40051	131.28709	-1206.79358	1078.31018	109.79195	-1334.16174	1120.41211	235.5876	-1394.81714	950.46143	92.81915	-1379.50989	674.94208	-219.51657	-1291.25989	1053.30591	-242.39618	-1571.11047	659.77985	149.28351	-1392.03247	984.70209	-142.77641	-1290.27527	1696.82922	-137.0555	-1643.37927	466.83862	109.40242	-1480.37122	1153.53955	-390.36502	-1329.49451	310.21707	-144.00214	-1267.69067	1105.21106	123.3824	-1292.29004	1223.71509	-37.60073	-1826.22559	425.83084	82.02937	-1287.00928	1692.33997	7.8905	-1998.72144	367.52496	19.25796	-1404.11145	1578.95886	4.82696	-2044.39563	205.16463	17.14461	-2028.72083	384.67911	-49.74176	-1413.13599	1492.70813	-48.07884	-1330.005	70.21243	-36.4371	-1385.90381	1084.8114	-320.58463	-1291.81836	1400.99915	-62.64561	-1289.8479	1108.90527	-225.9231	-1395.76123	1589.30176	-138.13098	-1504.69165	1365.2074	47.7489	-1232.03796	1061.95349	-209.92842	-1542.15759	1271.0282	-2.91795	-1586.28906	1068.24915	-79.53321	-1584.44678	1066.93542	37.1521	2845.9856	1034.31348	-3357.22705	NaN	NaN	NaN	NaN	NaN	NaN	NaN	NaN	NaN	NaN	NaN	NaN	NaN	NaN	NaN	-1407.75232	1738.50281	-53.58178	NaN	NaN	NaN	NaN	NaN	NaN	NaN	NaN	NaN	NaN	NaN	NaN	NaN	NaN	NaN
